<svg width="288" height="100" viewBox="0 0 288 100" fill="none" xmlns="http://www.w3.org/2000/svg">
<path d="M2.52841 65V35.9091H21.7898V40.9801H8.67898V47.9119H20.5114V52.983H8.67898V65H2.52841ZM31.8643 35.9091V65H25.8132V35.9091H31.8643ZM36.7116 65V43.1818H42.7628V65H36.7116ZM39.7514 40.3693C38.8518 40.3693 38.08 40.071 37.4361 39.4744C36.8016 38.8684 36.4844 38.1439 36.4844 37.3011C36.4844 36.4678 36.8016 35.7528 37.4361 35.1562C38.08 34.5502 38.8518 34.2472 39.7514 34.2472C40.651 34.2472 41.4181 34.5502 42.0526 35.1562C42.6965 35.7528 43.0185 36.4678 43.0185 37.3011C43.0185 38.1439 42.6965 38.8684 42.0526 39.4744C41.4181 40.071 40.651 40.3693 39.7514 40.3693ZM52.6669 43.1818L56.6726 50.8097L60.7777 43.1818H66.9851L60.6641 54.0909L67.1555 65H60.9766L56.6726 57.4574L52.4396 65H46.1896L52.6669 54.0909L46.4169 43.1818H52.6669ZM76.63 35.9091V65H70.5788V35.9091H76.63ZM91.3352 65.4261C89.1288 65.4261 87.2206 64.9574 85.6108 64.0199C84.0104 63.0729 82.7746 61.7566 81.9034 60.071C81.0322 58.3759 80.5966 56.411 80.5966 54.1761C80.5966 51.9223 81.0322 49.9527 81.9034 48.267C82.7746 46.572 84.0104 45.2557 85.6108 44.3182C87.2206 43.3712 89.1288 42.8977 91.3352 42.8977C93.5417 42.8977 95.4451 43.3712 97.0455 44.3182C98.6553 45.2557 99.8958 46.572 100.767 48.267C101.638 49.9527 102.074 51.9223 102.074 54.1761C102.074 56.411 101.638 58.3759 100.767 60.071C99.8958 61.7566 98.6553 63.0729 97.0455 64.0199C95.4451 64.9574 93.5417 65.4261 91.3352 65.4261ZM91.3636 60.7386C92.3674 60.7386 93.2055 60.4545 93.8778 59.8864C94.5502 59.3087 95.0568 58.5227 95.3977 57.5284C95.7481 56.5341 95.9233 55.4025 95.9233 54.1335C95.9233 52.8646 95.7481 51.733 95.3977 50.7386C95.0568 49.7443 94.5502 48.9583 93.8778 48.3807C93.2055 47.803 92.3674 47.5142 91.3636 47.5142C90.3504 47.5142 89.4981 47.803 88.8068 48.3807C88.125 48.9583 87.6089 49.7443 87.2585 50.7386C86.9176 51.733 86.7472 52.8646 86.7472 54.1335C86.7472 55.4025 86.9176 56.5341 87.2585 57.5284C87.6089 58.5227 88.125 59.3087 88.8068 59.8864C89.4981 60.4545 90.3504 60.7386 91.3636 60.7386ZM125.646 43.1818L118.018 65H111.2L103.572 43.1818H109.964L114.496 58.7926H114.723L119.24 43.1818H125.646ZM137.983 65.4261C135.739 65.4261 133.807 64.9716 132.188 64.0625C130.578 63.1439 129.337 61.8466 128.466 60.1705C127.595 58.4848 127.159 56.4915 127.159 54.1903C127.159 51.946 127.595 49.9763 128.466 48.2812C129.337 46.5862 130.563 45.2652 132.145 44.3182C133.736 43.3712 135.601 42.8977 137.741 42.8977C139.181 42.8977 140.521 43.1297 141.761 43.5938C143.011 44.0483 144.1 44.7348 145.028 45.6534C145.966 46.572 146.695 47.7273 147.216 49.1193C147.737 50.5019 147.997 52.1212 147.997 53.9773V55.6392H129.574V51.8892H142.301C142.301 51.018 142.112 50.2462 141.733 49.5739C141.354 48.9015 140.829 48.3759 140.156 47.9972C139.493 47.6089 138.722 47.4148 137.841 47.4148C136.922 47.4148 136.108 47.6278 135.398 48.054C134.697 48.4706 134.148 49.0341 133.75 49.7443C133.352 50.4451 133.149 51.2263 133.139 52.0881V55.6534C133.139 56.733 133.338 57.6657 133.736 58.4517C134.143 59.2377 134.716 59.8438 135.455 60.2699C136.193 60.696 137.069 60.9091 138.082 60.9091C138.755 60.9091 139.37 60.8144 139.929 60.625C140.488 60.4356 140.966 60.1515 141.364 59.7727C141.761 59.3939 142.064 58.9299 142.273 58.3807L147.869 58.75C147.585 60.0947 147.003 61.2689 146.122 62.2727C145.251 63.267 144.124 64.0436 142.741 64.6023C141.368 65.1515 139.782 65.4261 137.983 65.4261Z" fill="#FF001F"/>
</svg>
